
<svg xmlns="http://www.w3.org/2000/svg"
     viewBox="0 -880 1000 1000"
     fill="#FFF"
     stroke="#FFF">
  <g transform="scale(1, -1)">
    <path d="M552 -30Q450 -30 384.5 -20.0Q319 -10 283.0 16.0Q247 42 233.0 89.0Q219 136 219 210V532L33 528V595L219 599V773H296V601L703 609V793H781V611L967 615V548L781 544V329Q781 268 759.5 243.5Q738 219 683 219Q641 219 583.0 232.0Q525 245 462 267L483 334Q558 311 597.5 302.0Q637 293 667 293Q689 293 696.0 303.0Q703 313 703 351V542L296 534V210Q296 155 305.5 121.0Q315 87 341.5 69.5Q368 52 418.5 45.5Q469 39 552 39Q633 39 714.0 43.5Q795 48 866 57L873 -11Q800 -21 716.5 -25.5Q633 -30 552 -30Z"/>
  </g>
</svg>
