
<svg xmlns="http://www.w3.org/2000/svg"
     viewBox="0 -880 1000 1000"
     fill="#FFF"
     stroke="#000"
     stroke-width="50">
  <g transform="scale(1, -1)">
    <path d="M544 -50Q439 -50 371.0 -39.0Q303 -28 265.0 -1.0Q227 26 212.0 75.0Q197 124 197 200V506L27 502V615L197 619V777H330V621L670 629V797H803V631L973 635V522L803 518V327Q803 254 778.0 225.5Q753 197 686 197Q637 197 572.5 209.5Q508 222 452 241L480 358Q551 339 586.0 332.0Q621 325 646 325Q662 325 666.0 332.0Q670 339 670 371V516L330 508V200Q330 157 337.5 130.5Q345 104 367.0 90.5Q389 77 431.5 72.0Q474 67 544 67Q618 67 703.5 71.5Q789 76 872 86L882 -32Q797 -41 707.5 -45.5Q618 -50 544 -50Z"/>
  </g>
</svg>
